<?xml version="1.0" encoding="UTF-8"?>
<!DOCTYPE svg PUBLIC "-//W3C//DTD SVG 1.1//EN" "http://www.w3.org/Graphics/SVG/1.1/DTD/svg11.dtd">
<!-- Creator: CorelDRAW X8 -->
<svg xmlns="http://www.w3.org/2000/svg" xml:space="preserve" width="900px" height="900px" version="1.1" style="shape-rendering:geometricPrecision; text-rendering:geometricPrecision; image-rendering:optimizeQuality; fill-rule:evenodd; clip-rule:evenodd"
viewBox="0 0 1307 1307"
 xmlns:xlink="http://www.w3.org/1999/xlink">
 <defs>
  <style type="text/css">
   <![CDATA[
    .fil0 {fill:#1E1A1C}
    .fil2 {fill:#EB1F3E}
    .fil1 {fill:#ED1F3D}
   ]]>
  </style>
 </defs>
 <g id="Layer_x0020_1">
  <metadata id="CorelCorpID_0Corel-Layer"/>
  <path class="fil0" d="M261 0l785 0c144,0 261,117 261,261l0 785c0,144 -117,261 -261,261l-785 0c-144,0 -261,-117 -261,-261l0 -785c0,-144 117,-261 261,-261z"/>
  <g id="_2683473076128">
   <path class="fil1" d="M275 701l76 -1c10,-11 10,-29 25,-31 11,7 9,16 16,29l23 2 12 -103c2,-14 0,-23 15,-25 18,4 11,94 20,126l24 1c2,-11 15,-60 25,-61 13,3 11,11 14,25 2,12 5,25 7,36l71 0c5,-1 20,-1 24,-5 5,-14 6,-39 19,-48 16,4 17,32 21,49l21 1 12 -160c1,-14 -1,-44 11,-48 17,-5 15,26 15,40 2,18 2,36 3,54 3,37 4,74 6,111l24 2c2,-17 7,-34 10,-52 3,-13 4,-45 16,-47 15,-3 13,32 15,46 2,18 5,39 7,57l44 -1c0,-1 1,-3 1,-2l4 -6c22,-39 21,-12 35,6l22 3c2,-19 6,-40 8,-60 3,-21 2,-48 17,-53 16,4 14,29 15,49 2,21 4,41 6,62l24 0c10,-17 12,-44 26,-53 17,5 14,36 22,54l25 0c49,-63 79,-120 66,-207 -10,-69 -48,-135 -105,-170 -69,-43 -145,-41 -217,-2 -45,23 -80,58 -106,100 -10,18 -13,32 -22,49 -15,-27 -8,-43 -48,-89 -20,-23 -44,-44 -78,-61 -223,-115 -419,130 -298,340 8,16 19,30 27,43z"/>
   <path class="fil2" d="M294 722c8,17 23,29 33,40 15,15 10,14 32,34 9,7 15,14 23,22l69 68c20,21 73,64 97,87l96 86c7,6 15,20 26,19 4,-1 115,-110 140,-135l47 -44c21,-17 50,-48 70,-66 21,-20 107,-98 110,-114 -25,0 -24,-5 -27,-29 -8,8 -6,16 -14,31l-30 0c-8,8 0,9 -14,14 -16,-5 -12,-27 -14,-45 -2,3 0,-2 -3,6 -3,9 2,-10 -1,3 0,2 -1,8 -1,11 -1,7 -2,14 -3,22 -1,7 -3,33 -6,39 -5,13 -18,10 -21,-8 -2,-14 -4,-28 -5,-42 -19,0 -21,1 -26,-16 -4,4 0,-1 -4,4l-8 9c-7,5 -59,3 -64,0 -11,-7 -5,-31 -12,-46 -3,16 -7,42 -14,53l-29 0c-2,14 -2,22 -14,27 -18,-10 -8,-40 -13,-63l-4 -8c-2,28 -4,56 -5,84 -2,21 3,63 -16,67 -15,-2 -15,-91 -16,-106 -8,-1 -14,0 -19,-5 -2,-2 -2,-4 -4,-8l-4 -9c0,1 -1,1 -1,2l-3 5c-10,13 -17,8 -53,9 -19,0 -51,3 -69,0 -5,-8 -6,-20 -9,-31 -4,6 -6,14 -8,21 -5,16 -4,13 -35,13l-9 15c-22,3 -18,-27 -19,-48 -4,6 -5,15 -6,23l-8 67c-2,7 -7,12 -15,7 -9,-4 -11,-53 -11,-63 -29,-1 -15,-5 -29,-18 -8,19 -6,17 -31,17 -15,0 -31,-1 -46,-1z"/>
  </g>
 </g>
</svg>
